<!-- Dummy logo -->
<svg width="286" height="41" viewBox="0 0 286 41" fill="none" xmlns="http://www.w3.org/2000/svg">
<path d="M26.311 13.3968C23.5802 13.3968 22.0733 14.244 22.0733 15.7038C22.0733 17.2103 23.4394 18.058 26.4052 18.2463C30.7842 18.5289 36.34 19.5178 36.34 25.6853C36.34 29.7814 32.997 33.3132 26.3581 33.3132C22.6855 33.3132 19.0133 32.701 15.6232 29.1696L18.4482 25.0732C20.0963 26.9093 23.8627 28.2749 26.4527 28.322C28.618 28.3687 30.6429 27.2393 30.6429 25.5436C30.6429 23.943 29.3244 23.2842 26.0289 23.0958C21.6499 22.7662 16.4233 21.1655 16.4233 15.8922C16.4233 10.5247 21.9795 8.64111 26.2173 8.64111C29.8428 8.64111 32.5736 9.34704 35.2574 11.7016L32.0556 15.4684C30.4075 13.9148 28.5243 13.3968 26.311 13.3968Z" fill="#353A40"/>
<path d="M45.8931 21.4866C45.8931 25.0175 47.8238 27.7017 51.496 27.7017C55.0274 27.7017 57.4286 24.7354 57.4286 21.2045V9.33936H63.1261V32.5982H57.9937L57.617 29.444C55.2158 31.7981 53.0029 32.9283 49.7541 32.9283C44.1979 32.9283 40.1489 28.7377 40.1489 21.5337V9.33936H45.8931V21.4866Z" fill="#353A40"/>
<path d="M87.6641 20.928C87.6641 17.3033 85.2158 14.3366 81.0723 14.3366C76.9287 14.3366 74.4805 17.3033 74.4805 20.928C74.4805 24.5535 77.1642 27.5198 81.0723 27.5198C84.9804 27.5198 87.6641 24.5535 87.6641 20.928ZM68.2183 9.29876H73.5857L73.9625 12.5005C75.7519 9.91094 78.8594 8.78076 81.4961 8.78076C88.653 8.78076 93.4087 14.1016 93.4087 20.928C93.4087 27.7082 89.1239 33.0761 81.6845 33.0761C79.2357 33.0761 75.6106 32.3226 73.9625 29.7797V36.518L68.2183 40.945V9.29876Z" fill="#353A40"/>
<path d="M109.127 13.726C106.019 13.726 103.477 15.2329 102.629 18.2459H115.153C114.777 15.2329 112.423 13.726 109.127 13.726ZM109.456 27.9452C111.575 27.9452 114.353 27.1451 115.671 25.7791L119.344 29.4046C116.895 31.9475 112.893 33.1719 109.362 33.1719C101.358 33.1719 96.6018 28.2273 96.6018 20.7883C96.6018 13.726 101.405 8.64111 108.938 8.64111C116.707 8.64111 121.557 13.4439 120.662 23.0012H102.535C102.912 25.8737 105.407 27.9452 109.456 27.9452Z" fill="#353A40"/>
<path d="M130.834 12.0069C132.623 9.13475 135.025 8.71094 137.379 8.71094C139.781 8.71094 142.087 9.65232 143.358 10.9238L140.769 15.9149C139.592 14.926 138.509 14.408 136.626 14.408C133.612 14.408 130.834 16.0087 130.834 20.2931V32.5354H125.09V9.32312H130.41L130.834 12.0069Z" fill="#353A40"/>
<path d="M156.506 33.2194C149.772 33.2194 144.17 29.1696 144.17 20.9296C144.17 12.6905 149.772 8.64111 156.506 8.64111C159.801 8.64111 162.344 9.58293 164.887 12.0783L161.262 15.8926C159.896 14.6679 158.2 14.0561 156.6 14.0561C152.739 14.0561 149.914 16.8811 149.914 20.9296C149.914 25.3557 152.928 27.7098 156.506 27.7098C158.342 27.7098 160.178 27.1927 161.591 25.7791L165.452 29.5463C162.768 32.183 159.943 33.2194 156.506 33.2194Z" fill="#0F348F"/>
<path d="M173.131 20.9507C173.131 24.4821 175.249 27.778 179.44 27.778C183.631 27.778 185.749 24.4821 185.749 20.9507C185.749 17.4669 183.301 14.0768 179.44 14.0768C175.296 14.0768 173.131 17.4669 173.131 20.9507ZM191.54 20.9507C191.54 27.6371 186.973 33.0517 179.44 33.0517C171.906 33.0517 167.386 27.6371 167.386 20.9507C167.386 14.3127 172.001 8.85059 179.393 8.85059C186.785 8.85059 191.54 14.3127 191.54 20.9507Z" fill="#0F348F"/>
<path d="M200.153 20.9076C200.153 24.957 203.071 27.7345 206.744 27.7345C210.369 27.7345 213.477 25.0982 213.477 20.9076C213.477 16.8587 210.369 14.1278 206.744 14.1278C203.071 14.1278 200.153 16.7174 200.153 20.9076ZM219.598 32.5373H214.231L213.854 29.3355C212.064 32.1139 209.193 33.0557 206.368 33.0557C199.541 33.0557 194.408 28.5354 194.408 20.9076C194.408 12.9039 199.446 8.75995 206.227 8.75995C208.675 8.75995 212.489 10.0785 213.854 12.4797V5.95006L219.598 0.890625V32.5373Z" fill="#0F348F"/>
<path d="M236.608 13.726C233.5 13.726 230.957 15.2329 230.11 18.2459H242.635C242.258 15.2329 239.904 13.726 236.608 13.726ZM236.937 27.9452C239.056 27.9452 241.835 27.1451 243.152 25.7791L246.825 29.4046C244.376 31.9475 240.375 33.1719 236.844 33.1719C228.839 33.1719 224.083 28.2273 224.083 20.7883C224.083 13.726 228.886 8.64111 236.419 8.64111C244.188 8.64111 249.038 13.4439 248.143 23.0012H230.016C230.393 25.8737 232.888 27.9452 236.937 27.9452Z" fill="#0F348F"/>
<path d="M258.299 12.0069C260.088 9.13475 262.489 8.71094 264.844 8.71094C267.244 8.71094 269.552 9.65232 270.823 10.9238L268.233 15.9149C267.056 14.926 265.974 14.408 264.09 14.408C261.077 14.408 258.299 16.0087 258.299 20.2931V32.5354H252.554V9.32312H257.875L258.299 12.0069Z" fill="#0F348F"/>
<path d="M12.0919 8.64111L0 20.733L4.06189 24.7949L8.12378 20.733L12.0919 16.7645V8.64111Z" fill="#0F348F"/>
<path d="M5.77795 26.5161L12.0912 32.8293L12.0912 24.7058L9.84002 22.4547L5.77795 26.5161Z" fill="#353A40"/>
<path d="M281.601 16.6709L277.54 20.7328L273.571 24.701V32.8248L285.663 20.7328L281.601 16.6709Z" fill="#0F348F"/>
<path d="M279.681 14.7856L273.558 8.66277L273.558 16.7866L275.619 18.8477L279.681 14.7856Z" fill="#353A40"/>
</svg>
